<svg width="21" height="19" viewBox="0 0 21 19" fill="none" xmlns="http://www.w3.org/2000/svg">
<path d="M16.4429 8.49054H6.17907L9.32053 5.12522C9.46743 4.96759 9.5381 4.76438 9.517 4.56027C9.4959 4.35617 9.38476 4.16791 9.20803 4.03689C9.03129 3.90588 8.80345 3.84285 8.57461 3.86166C8.34577 3.88048 8.13469 3.97961 7.98779 4.13724L3.66072 8.76841C3.6316 8.80525 3.60557 8.84394 3.58283 8.88419C3.58283 8.92278 3.58283 8.94594 3.52225 8.98453C3.48302 9.07303 3.46248 9.16724 3.46167 9.2624C3.46248 9.35756 3.48302 9.45177 3.52225 9.54027C3.52225 9.57887 3.52225 9.60202 3.58283 9.64061C3.60557 9.68086 3.6316 9.71956 3.66072 9.75639L7.98779 14.3876C8.06916 14.4747 8.17105 14.5448 8.28623 14.5928C8.4014 14.6408 8.52702 14.6656 8.65416 14.6654C8.85637 14.6658 9.05233 14.603 9.20803 14.4879C9.29566 14.4231 9.36809 14.3435 9.42119 14.2537C9.47428 14.1639 9.50699 14.0657 9.51744 13.9646C9.5279 13.8635 9.51588 13.7615 9.48209 13.6646C9.4483 13.5676 9.3934 13.4776 9.32053 13.3996L6.17907 10.0343H16.4429C16.6724 10.0343 16.8925 9.95294 17.0548 9.80819C17.2171 9.66344 17.3083 9.46711 17.3083 9.2624C17.3083 9.05769 17.2171 8.86137 17.0548 8.71661C16.8925 8.57186 16.6724 8.49054 16.4429 8.49054Z" fill="#00162A"/>
</svg>
