<svg width="20" height="20" viewBox="0 0 20 20" fill="none" xmlns="http://www.w3.org/2000/svg">
<path d="M7.00001 5.50001C7.00001 6.60459 6.10457 7.50002 4.99999 7.50002C3.89542 7.50002 2.99998 6.60459 2.99998 5.50001C2.99998 4.39544 3.89542 3.5 4.99999 3.5C6.10457 3.5 7.00001 4.39544 7.00001 5.50001Z" fill="#1A5D98"/>
<path d="M17.0001 5.50001C17.0001 6.60459 16.1047 7.50002 15.0001 7.50002C13.8955 7.50002 13.0001 6.60459 13.0001 5.50001C13.0001 4.39544 13.8955 3.5 15.0001 3.5C16.1047 3.5 17.0001 4.39544 17.0001 5.50001Z" fill="#1A5D98"/>
<path d="M11 12.5003C11 11.975 11.1035 11.4549 11.3045 10.9696C11.5055 10.4843 11.8001 10.0433 12.1716 9.67185C12.543 9.30042 12.984 9.00578 13.4693 8.80476C13.9546 8.60374 14.4747 8.50027 15 8.50027C15.5253 8.50027 16.0455 8.60374 16.5308 8.80476C17.0161 9.00578 17.457 9.30042 17.8285 9.67185C18.1999 10.0433 18.4945 10.4842 18.6956 10.9696C18.8966 11.4549 19 11.975 19 12.5003H11Z" fill="#1A5D98"/>
<path d="M1 12.5003C1 11.975 1.10346 11.4549 1.30448 10.9696C1.5055 10.4843 1.80014 10.0433 2.17158 9.67185C2.54302 9.30042 2.98398 9.00578 3.46928 8.80476C3.95459 8.60374 4.47473 8.50027 5.00002 8.50027C5.52531 8.50027 6.04546 8.60374 6.53077 8.80476C7.01607 9.00578 7.45703 9.30042 7.82847 9.67185C8.1999 10.0433 8.49454 10.4842 8.69556 10.9696C8.89658 11.4549 9.00005 11.975 9.00005 12.5003H1Z" fill="#1A5D98"/>
<path d="M6 15.5C6 14.9747 6.10346 14.4545 6.30448 13.9692C6.5055 13.4839 6.80014 13.0429 7.17158 12.6715C7.54302 12.3001 7.98397 12.0054 8.46928 11.8044C8.95459 11.6034 9.47473 11.4999 10 11.4999C10.5253 11.4999 11.0455 11.6034 11.5308 11.8044C12.0161 12.0054 12.457 12.3001 12.8285 12.6715C13.1999 13.0429 13.4945 13.4839 13.6956 13.9692C13.8966 14.4545 14 14.9747 14 15.5H6Z" fill="#1A5D98"/>
<path d="M12.0001 8.00015C12.0001 9.10473 11.1047 10.0002 10.0001 10.0002C8.89551 10.0002 8.00007 9.10473 8.00007 8.00015C8.00007 6.89557 8.89551 6.00014 10.0001 6.00014C11.1047 6.00014 12.0001 6.89557 12.0001 8.00015Z" fill="#1A5D98"/>
<path fill-rule="evenodd" clip-rule="evenodd" d="M4.50008 17L4.50008 15.4999C4.50008 14.7777 4.64234 14.0625 4.91875 13.3952C5.19515 12.7279 5.60028 12.1216 6.111 11.6108C6.62173 11.1001 7.22805 10.695 7.89534 10.4186C8.56264 10.1422 9.27784 9.99991 10.0001 9.99991C10.7224 9.99991 11.4376 10.1422 12.1049 10.4186C12.7722 10.695 13.3785 11.1001 13.8892 11.6108C14.4 12.1216 14.8051 12.7279 15.0815 13.3952C15.3579 14.0625 15.5001 14.7777 15.5001 15.4999V17H4.50008ZM6.00009 15.4999C6.00009 14.9857 6.09924 14.4764 6.29199 13.9999C6.29614 13.9897 6.30034 13.9794 6.30457 13.9692C6.50559 13.4839 6.80023 13.0429 7.17167 12.6715C7.54311 12.3001 7.98407 12.0054 8.46937 11.8044C8.95468 11.6034 9.47482 11.4999 10.0001 11.4999C10.5254 11.4999 11.0456 11.6034 11.5309 11.8044C12.0162 12.0054 12.4571 12.3001 12.8286 12.6715C13.2 13.0429 13.4946 13.4839 13.6957 13.9692C13.6999 13.9794 13.7041 13.9897 13.7082 13.9999C13.901 14.4764 14.0001 14.9857 14.0001 15.4999H6.00009Z" fill="#E6EDF4"/>
<path fill-rule="evenodd" clip-rule="evenodd" d="M13.5 7.99978C13.5 9.93279 11.9331 11.4999 10.0001 11.4999C8.06711 11.4999 6.49997 9.93279 6.49997 7.99978C6.49997 6.06677 8.06698 4.49976 9.99999 4.49976C11.933 4.49976 13.5 6.06677 13.5 7.99978ZM10.0001 9.99991C11.1047 9.99991 12 9.10435 12 7.99978C12 6.8952 11.1046 5.99976 9.99999 5.99976C8.89542 5.99976 7.99998 6.8952 7.99998 7.99978C7.99998 9.10435 8.89554 9.99991 10.0001 9.99991Z" fill="#E6EDF4"/>
</svg>
