<svg width="20" height="20" viewBox="0 0 20 20" fill="none" xmlns="http://www.w3.org/2000/svg">
<path d="M14.4083 7.75835C14.3312 7.6811 14.2396 7.61981 14.1388 7.57799C14.038 7.53617 13.9299 7.51465 13.8208 7.51465C13.7116 7.51465 13.6036 7.53617 13.5028 7.57799C13.4019 7.61981 13.3104 7.6811 13.2333 7.75835L9.99994 10.9917L6.76661 7.75835C6.61079 7.60254 6.39946 7.515 6.17911 7.515C5.95875 7.515 5.74742 7.60254 5.59161 7.75835C5.43579 7.91417 5.34826 8.1255 5.34826 8.34585C5.34826 8.56621 5.43579 8.77754 5.59161 8.93335L9.41661 12.7584C9.4937 12.8356 9.58528 12.8969 9.68609 12.9387C9.7869 12.9805 9.89497 13.0021 10.0041 13.0021C10.1132 13.0021 10.2213 12.9805 10.3221 12.9387C10.4229 12.8969 10.5145 12.8356 10.5916 12.7584L14.4166 8.93335C14.7333 8.61669 14.7333 8.08335 14.4083 7.75835Z" fill="#CCCCCC"/>
</svg>
