<svg width="20" height="20" viewBox="0 0 20 20" fill="none" xmlns="http://www.w3.org/2000/svg">
<path d="M18.7211 5.64583C19.0093 6.04167 19.0742 6.48958 18.9156 6.98958L15.9432 16.4271C15.8063 16.8715 15.5307 17.2448 15.1164 17.5469C14.702 17.849 14.2607 18 13.7923 18H3.8159C3.26105 18 2.72602 17.8142 2.21081 17.4427C1.69559 17.0712 1.33711 16.6146 1.13534 16.0729C0.962405 15.6076 0.955199 15.1667 1.11373 14.75C1.11373 14.7222 1.12453 14.6285 1.14615 14.4688C1.16777 14.309 1.18218 14.1806 1.18939 14.0833C1.19659 14.0278 1.18578 13.9531 1.15696 13.8594C1.12814 13.7656 1.11733 13.6979 1.12453 13.6562C1.13895 13.5799 1.16777 13.5069 1.211 13.4375C1.25424 13.3681 1.31369 13.2865 1.38935 13.1927C1.46501 13.099 1.52446 13.0174 1.56769 12.9479C1.73342 12.684 1.89555 12.3663 2.05408 11.9948C2.21261 11.6233 2.3207 11.3056 2.37834 11.0417C2.39996 10.9722 2.40176 10.8681 2.38375 10.7292C2.36573 10.5903 2.36393 10.4931 2.37834 10.4375C2.39996 10.3611 2.46121 10.2639 2.56209 10.1458C2.66297 10.0278 2.72422 9.94792 2.74584 9.90625C2.89716 9.65625 3.04848 9.33681 3.1998 8.94792C3.35112 8.55903 3.4412 8.24653 3.47002 8.01042C3.47722 7.94792 3.46822 7.83681 3.443 7.67708C3.41778 7.51736 3.41958 7.42014 3.4484 7.38542C3.47722 7.29514 3.55649 7.18924 3.68619 7.06771C3.8159 6.94618 3.89516 6.86806 3.92398 6.83333C4.06089 6.65278 4.21402 6.35938 4.38335 5.95312C4.55269 5.54688 4.65177 5.21181 4.68059 4.94792C4.6878 4.89236 4.67699 4.80382 4.64816 4.68229C4.61934 4.56076 4.61214 4.46875 4.62655 4.40625C4.64096 4.35069 4.67338 4.28819 4.72383 4.21875C4.77427 4.14931 4.83912 4.06944 4.91838 3.97917C4.99764 3.88889 5.05889 3.81597 5.10213 3.76042C5.15978 3.67708 5.21922 3.57118 5.28047 3.44271C5.34172 3.31424 5.39576 3.19271 5.4426 3.07812C5.48944 2.96354 5.54709 2.83854 5.61554 2.70312C5.684 2.56771 5.75425 2.4566 5.82631 2.36979C5.89837 2.28299 5.99384 2.20139 6.11274 2.125C6.23164 2.04861 6.36134 2.00868 6.50185 2.00521C6.64237 2.00174 6.8135 2.02083 7.01526 2.0625L7.00446 2.09375C7.27828 2.03125 7.46202 2 7.5557 2H15.7811C16.3143 2 16.7251 2.19444 17.0133 2.58333C17.3015 2.97222 17.3664 3.42361 17.2079 3.9375L14.2463 13.375C13.9869 14.2014 13.7293 14.7344 13.4735 14.974C13.2176 15.2135 12.7547 15.3333 12.0845 15.3333H2.69179C2.49724 15.3333 2.36033 15.3854 2.28106 15.4896C2.2018 15.6007 2.1982 15.75 2.27025 15.9375C2.44319 16.4236 2.96201 16.6667 3.8267 16.6667H13.8031C14.0121 16.6667 14.2138 16.6128 14.4084 16.5052C14.603 16.3976 14.7291 16.2535 14.7867 16.0729L18.0293 5.79167C18.0798 5.63889 18.0978 5.44097 18.0834 5.19792C18.3572 5.30208 18.5697 5.45139 18.7211 5.64583ZM7.22063 5.66667C7.19181 5.75694 7.19901 5.83507 7.24225 5.90104C7.28548 5.96701 7.35754 6 7.45842 6H14.0301C14.1238 6 14.2156 5.96701 14.3057 5.90104C14.3958 5.83507 14.4552 5.75694 14.4841 5.66667L14.711 5C14.7399 4.90972 14.7327 4.8316 14.6894 4.76562C14.6462 4.69965 14.5741 4.66667 14.4733 4.66667H7.90158C7.8079 4.66667 7.71603 4.69965 7.62596 4.76562C7.53588 4.8316 7.47644 4.90972 7.44761 5L7.22063 5.66667ZM6.32351 8.33333C6.29469 8.42361 6.30189 8.50174 6.34513 8.56771C6.38836 8.63368 6.46042 8.66667 6.5613 8.66667H13.133C13.2267 8.66667 13.3185 8.63368 13.4086 8.56771C13.4987 8.50174 13.5581 8.42361 13.5869 8.33333L13.8139 7.66667C13.8427 7.57639 13.8355 7.49826 13.7923 7.43229C13.7491 7.36632 13.677 7.33333 13.5761 7.33333H7.00446C6.91078 7.33333 6.81891 7.36632 6.72884 7.43229C6.63876 7.49826 6.57932 7.57639 6.55049 7.66667L6.32351 8.33333Z" fill="#1A5D98"/>
</svg>
