<svg width="25" height="24" viewBox="0 0 25 24" fill="none" xmlns="http://www.w3.org/2000/svg">
<path d="M8.65748 11.9171L4.88285 8.21057C3.39686 9.80129 2.83374 11.3949 2.82397 11.4275L2.72034 11.7309L2.82299 12.0343C2.8445 12.0986 5.08718 18.4509 12.5494 18.4509C13.4576 18.4509 14.2847 18.353 15.0443 18.1888L12.3598 15.5527C11.3932 15.5061 10.4787 15.1082 9.79444 14.4362C9.11013 13.7642 8.70486 12.8663 8.65748 11.9171ZM12.5494 5.01089C10.7359 5.01089 9.24992 5.39873 8.01126 5.96897L4.38915 2.41217L3.00678 3.76961L20.6041 21.0496L21.9865 19.6922L18.7622 16.5261C21.3412 14.6512 22.2612 12.0746 22.2749 12.0343L22.3775 11.7309L22.2749 11.4275C22.2534 11.3632 20.0117 5.01089 12.5494 5.01089ZM14.4128 12.255C14.5956 11.6051 14.4401 10.8736 13.9318 10.3735C13.4234 9.87329 12.6775 9.72161 12.0156 9.90113L10.5414 8.45345C11.1455 8.08863 11.8402 7.89402 12.5494 7.89089C14.7061 7.89089 16.4599 9.61313 16.4599 11.7309C16.457 12.4272 16.2584 13.1092 15.8861 13.7018L14.4128 12.255Z" fill="#002D54" fill-opacity="0.3"/>
</svg>
