<svg width="20" height="20" viewBox="0 0 20 20" fill="none" xmlns="http://www.w3.org/2000/svg">
<path fill-rule="evenodd" clip-rule="evenodd" d="M9.02953 2.83325C9.38997 2.61493 9.80333 2.49951 10.2247 2.49951C10.6461 2.49951 11.0595 2.61493 11.4199 2.83325L12.2687 3.35241C13.4595 4.08033 14.8158 4.24241 16.1783 4.40575C16.6187 4.45866 17.0595 4.51116 17.4958 4.58325C17.4958 4.58325 17.5054 5.34741 17.4954 5.69408L17.4083 8.67366C17.3333 11.2291 16.197 13.652 14.2479 15.4128C13.3283 16.2432 12.377 16.9937 11.2841 17.617C10.962 17.7992 10.6009 17.9014 10.2311 17.915C9.86131 17.9285 9.49366 17.853 9.15911 17.6949C7.89703 17.0949 6.77953 16.3341 5.75911 15.4128C3.80994 13.652 2.67369 11.2291 2.59911 8.67366L2.51244 5.70366C2.50203 5.35158 2.51244 4.58325 2.51244 4.58325C2.86661 4.54158 3.22744 4.50699 3.59119 4.47241C5.19661 4.31991 6.85536 4.16241 8.21619 3.33074L9.02994 2.83325H9.02953ZM9.16661 9.16658V6.24991H10.8333V9.16658H13.7499V10.8332H10.8333V13.7499H9.16661V10.8332H6.24994V9.16658H9.16661Z" fill="#1A5D98"/>
</svg>
