<svg width="65" height="86" viewBox="0 0 65 86" fill="none" xmlns="http://www.w3.org/2000/svg">
<g opacity="0.3">
<g clip-path="url(#clip0_184_4037)">
<path d="M31.8369 11.2466C30.7067 11.5494 29.5716 11.8536 28.4437 12.1653L28.429 12.1101L31.834 11.1977C31.9053 11.1977 31.8996 11.2145 31.8369 11.2466Z" fill="#FAFAFA"/>
<path d="M31.8368 11.2467L31.8244 11.2005L33.4723 10.7589C32.9662 10.9976 32.3862 11.0938 31.8368 11.2467Z" fill="#FAFAFA"/>
<path fill-rule="evenodd" clip-rule="evenodd" d="M81.6804 47.8417C83.1245 47.3402 84.6088 46.9629 86.1171 46.714L84.7631 41.661C84.507 41.085 84.301 40.4879 84.1475 39.8765C83.2397 37.0227 81.8845 34.3311 80.1326 31.9022C76.7551 27.5034 72.3061 25.4888 66.7921 25.8058C64.4958 26.0152 62.2276 26.4627 60.0238 27.1409C58.947 27.4345 58.7531 27.3185 58.4668 26.25C57.9732 24.3368 57.3178 22.469 56.5076 20.6669C54.56 16.2667 51.6769 12.6873 47.3378 10.3989C45.3017 9.28195 42.9722 8.81545 40.6629 9.06221C40.359 9.09535 40.0606 9.16128 39.7625 9.22718C39.4009 9.30709 39.0396 9.38695 38.6687 9.40822L33.4496 10.8067C32.9051 11.0391 32.3387 11.2164 31.759 11.336C30.6407 11.597 29.5376 11.9197 28.455 12.3028C28.5047 12.5811 28.5474 12.8614 28.5901 13.1416C28.6785 13.7221 28.7669 14.3026 28.9179 14.8663C29.356 16.483 29.7875 18.1021 30.219 19.7215C31.6001 24.9039 32.9819 30.0892 34.5828 35.2099C35.6242 38.7126 37.4346 41.9385 39.8818 44.6521C43.6922 48.767 48.6809 50.0414 53.9176 49.5443C53.2893 49.1784 52.6656 48.8247 52.0471 48.4739C51.051 47.9089 50.0683 47.3515 49.1004 46.763C44.2266 43.8086 41.0991 39.5261 39.3631 34.1683C38.288 30.8551 37.3613 27.4989 36.4348 24.1431C35.7257 21.5748 35.0166 19.0067 34.2411 16.4583C34.0456 15.8235 34.2404 15.5626 34.8435 15.401C36.5327 14.8864 38.2526 14.4782 39.9929 14.179C43.6458 13.6787 46.6834 14.8143 48.9324 17.7747C50.464 19.889 51.6319 22.2443 52.3877 24.7434C53.8155 29.268 55.556 33.688 57.5966 37.9713C57.6858 38.1552 57.7748 38.3393 57.8638 38.5235C58.9083 40.6845 59.9548 42.8496 61.4495 44.7521C64.0942 48.1256 67.5386 49.9055 71.855 49.9247C74.8817 49.937 77.7221 49.0607 80.5615 48.1847C80.9344 48.0697 81.3072 47.9547 81.6804 47.8417ZM64.5234 31.1122C64.23 31.1957 63.9367 31.2791 63.6428 31.3579C63.4445 31.411 63.2461 31.4648 63.0473 31.5187C62.2509 31.7345 61.4496 31.9517 60.6385 32.1324C60.2335 32.2358 60.1738 32.3739 60.3437 32.7611C60.514 33.1387 60.6525 33.5301 60.7914 33.9226C60.888 34.1956 60.9848 34.4692 61.0926 34.7389C62.2427 37.8066 64.0867 40.5666 66.4805 42.8034C68.0911 44.2551 69.9161 45.1964 72.1585 44.9977C74.0206 44.834 75.8354 44.4209 77.6492 44.0081C78.2864 43.863 78.9234 43.718 79.5623 43.5839C79.9619 43.5175 80.0808 43.3534 79.9432 42.9728C79.8322 42.6577 79.7305 42.3389 79.6289 42.0201C79.5159 41.666 79.403 41.3119 79.2773 40.9626C78.2543 38.0758 76.8393 35.4162 74.5723 33.3005C72.8542 31.6943 70.936 30.4624 68.4771 30.4036C67.1057 30.3771 65.813 30.7451 64.5234 31.1122Z" fill="#FAFAFA"/>
<path fill-rule="evenodd" clip-rule="evenodd" d="M54.0103 38.0366C50.4356 35.0293 46.23 34.2271 41.5951 34.5579C41.7146 34.6571 41.8396 34.7493 41.9695 34.8342C42.4607 35.1191 42.9542 35.3998 43.4478 35.6806C44.5409 36.3025 45.6346 36.9246 46.7041 37.5918C50.8794 40.177 54.0373 44.1209 55.6469 48.7605C56.6349 51.4741 57.422 54.2467 58.2091 57.019C58.5277 58.1412 58.8462 59.2633 59.1781 60.3815C59.9089 62.8427 60.5731 65.3216 61.2373 67.8006L61.2373 67.8007L61.2375 67.8012C61.3453 68.1844 61.4477 68.5485 60.9065 68.6935C60.366 68.8279 59.8294 68.977 59.2928 69.126C57.996 69.4862 56.6992 69.8464 55.3471 69.9999C51.6769 70.398 48.6748 69.2428 46.4638 66.2722C44.6712 63.8563 43.675 61.0692 42.7026 58.2758C42.5049 57.7117 42.3178 57.1436 42.1308 56.5757C41.7655 55.4666 41.4005 54.3582 40.9572 53.2819C39.5963 49.8066 38.0514 46.4061 36.3291 43.0949C35.1353 40.9003 33.8919 38.7292 31.9404 37.1449C29.6636 35.2351 26.7882 34.1859 23.8165 34.1808C21.2525 34.2398 18.7119 34.6837 16.2799 35.4978C15.7205 35.6672 15.164 35.8487 14.6072 36.0304C13.13 36.5125 11.6504 36.9953 10.1078 37.2534C9.62496 37.3319 9.43451 37.4949 9.58212 38.0458C10.1615 40.4397 10.8975 42.793 11.7853 45.0904C12.7913 47.8609 14.2301 50.4543 16.0482 52.7743C17.2376 54.2794 18.7204 55.5273 20.4066 56.4421C22.0928 57.357 23.9472 57.9198 25.8575 58.0964C28.4877 58.3129 31.135 58.0251 33.6572 57.2485C34.1673 57.088 34.6854 56.9571 35.2034 56.8263C35.4624 56.7608 35.7214 56.6954 35.9795 56.6262C36.4712 56.5047 36.794 56.6268 36.9908 57.19C37.2417 57.909 37.469 58.6344 37.6962 59.3597C38.0442 60.4704 38.3922 61.5811 38.8253 62.669C40.1044 65.9657 42.1563 68.9071 44.8086 71.2458C48.1324 74.1523 51.9023 75.5701 56.3497 74.7297C58.7019 74.2894 60.9887 73.6134 63.2761 72.9371C64.4201 72.5989 65.5643 72.2606 66.7169 71.9518C67.035 71.8665 67.0329 71.6686 66.9642 71.4122C66.9029 71.1452 66.8494 70.877 66.7959 70.6089C66.7158 70.2077 66.6359 69.8068 66.5298 69.4111C65.8702 67.0674 65.2584 64.7098 64.6467 62.3523C63.2893 57.1211 61.9319 51.8902 60.0518 46.8116C58.8431 43.407 56.7594 40.3806 54.0103 38.0366ZM30.3027 53.1673C30.6861 53.0633 31.0475 52.9652 31.3813 52.8957C31.7155 52.8062 32.0088 52.7269 32.2764 52.6546C32.7464 52.5276 33.1366 52.4221 33.5278 52.3205C35.2556 51.8729 35.2746 51.8678 34.6937 50.2317C33.5708 46.9061 31.6686 43.8974 29.1459 41.4568C27.3754 39.7883 25.3483 38.8147 22.8524 39.1119C20.5523 39.4577 18.2753 39.942 16.0336 40.5623C15.5799 40.6737 15.4924 40.86 15.6107 41.3017C16.7895 45.3021 18.4855 48.991 21.879 51.6447C23.5927 52.9874 25.4474 53.8494 27.6999 53.6887C28.628 53.6217 29.5121 53.3818 30.3027 53.1673Z" fill="#FAFAFA"/>
</g>
</g>
<defs>
<clipPath id="clip0_184_4037">
<rect width="67.8486" height="76.2068" fill="white" transform="translate(73.6101) rotate(75)"/>
</clipPath>
</defs>
</svg>
