<svg width="20" height="20" viewBox="0 0 20 20" fill="none" xmlns="http://www.w3.org/2000/svg">
<path d="M3 3.4375H4V16.5625H3C1.89531 16.5625 1 15.7229 1 14.6875V5.3125C1 4.27715 1.89531 3.4375 3 3.4375ZM5 3.4375H15V16.5625H5V3.4375ZM6.5 10.7617C6.5 11.0206 6.72388 11.2305 7 11.2305H8.65938V12.8125C8.65938 13.0714 8.88328 13.2813 9.15938 13.2813H10.7844C11.0605 13.2813 11.2844 13.0714 11.2844 12.8125V11.2305H13C13.2761 11.2305 13.5 11.0206 13.5 10.7617V9.23828C13.5 8.97938 13.2761 8.76953 13 8.76953H11.3125V7.1875C11.3125 6.92863 11.0886 6.71875 10.8125 6.71875H9.1875C8.91141 6.71875 8.6875 6.92863 8.6875 7.1875V8.76953H7C6.72388 8.76953 6.5 8.97938 6.5 9.23828V10.7617ZM17 3.4375H16V16.5625H17C18.1047 16.5625 19 15.7229 19 14.6875V5.3125C19 4.27715 18.1031 3.4375 17 3.4375Z" fill="#1A5D98"/>
</svg>
