<svg width="24" height="24" viewBox="0 0 24 24" fill="none" xmlns="http://www.w3.org/2000/svg">
<path d="M12 22.8533C12.42 22.8437 12.823 22.6858 13.1378 22.4076C13.4525 22.1294 13.6588 21.7489 13.72 21.3333H10.2134C10.2764 21.7602 10.4923 22.1497 10.8209 22.4293C11.1496 22.7089 11.5686 22.8596 12 22.8533Z" fill="#1A5D98"/>
<path d="M21.9 18.7533L21.6733 18.5533C21.0303 17.9804 20.4674 17.3234 20 16.6C19.4895 15.6017 19.1835 14.5115 19.1 13.3933V10.1C19.0973 9.69997 19.0616 9.30084 18.9933 8.90667C17.8641 8.67456 16.8497 8.05935 16.122 7.16519C15.3943 6.27103 14.9979 5.15286 15 4V3.58C14.3039 3.23746 13.5561 3.01221 12.7867 2.91333V2.07333C12.7867 1.83729 12.6929 1.61092 12.526 1.44401C12.3591 1.2771 12.1327 1.18333 11.8967 1.18333C11.6606 1.18333 11.4342 1.2771 11.2673 1.44401C11.1004 1.61092 11.0067 1.83729 11.0067 2.07333V2.94667C9.2838 3.1897 7.70704 4.04783 6.56747 5.36262C5.4279 6.67742 4.80248 8.36009 4.80666 10.1V13.3933C4.72316 14.5115 4.41718 15.6017 3.90666 16.6C3.44725 17.3216 2.89346 17.9785 2.25999 18.5533L2.03333 18.7533V20.6333H21.9V18.7533Z" fill="#1A5D98"/>
<path d="M20 7.33333C21.8409 7.33333 23.3333 5.84095 23.3333 4C23.3333 2.15905 21.8409 0.666668 20 0.666668C18.159 0.666668 16.6666 2.15905 16.6666 4C16.6666 5.84095 18.159 7.33333 20 7.33333Z" fill="#F27400"/>
</svg>
