<svg width="16" height="18" viewBox="0 0 16 18" fill="none" xmlns="http://www.w3.org/2000/svg">
<path d="M13.8333 2.50001H10.35C10 1.53334 9.08333 0.833344 8 0.833344C6.91667 0.833344 6 1.53334 5.65 2.50001H2.16667C1.25 2.50001 0.5 3.25001 0.5 4.16668V15.8333C0.5 16.75 1.25 17.5 2.16667 17.5H13.8333C14.75 17.5 15.5 16.75 15.5 15.8333V4.16668C15.5 3.25001 14.75 2.50001 13.8333 2.50001ZM8 2.50001C8.45833 2.50001 8.83333 2.87501 8.83333 3.33334C8.83333 3.79168 8.45833 4.16668 8 4.16668C7.54167 4.16668 7.16667 3.79168 7.16667 3.33334C7.16667 2.87501 7.54167 2.50001 8 2.50001ZM8.83333 14.1667H4.66667C4.20833 14.1667 3.83333 13.7917 3.83333 13.3333C3.83333 12.875 4.20833 12.5 4.66667 12.5H8.83333C9.29167 12.5 9.66667 12.875 9.66667 13.3333C9.66667 13.7917 9.29167 14.1667 8.83333 14.1667ZM11.3333 10.8333H4.66667C4.20833 10.8333 3.83333 10.4583 3.83333 10C3.83333 9.54168 4.20833 9.16668 4.66667 9.16668H11.3333C11.7917 9.16668 12.1667 9.54168 12.1667 10C12.1667 10.4583 11.7917 10.8333 11.3333 10.8333ZM11.3333 7.50001H4.66667C4.20833 7.50001 3.83333 7.12501 3.83333 6.66668C3.83333 6.20834 4.20833 5.83334 4.66667 5.83334H11.3333C11.7917 5.83334 12.1667 6.20834 12.1667 6.66668C12.1667 7.12501 11.7917 7.50001 11.3333 7.50001Z" fill="#1A5D98"/>
</svg>
