<svg width="33" height="32" viewBox="0 0 33 32" fill="none" xmlns="http://www.w3.org/2000/svg">
<rect x="0.5" width="32" height="32" rx="4" fill="#E6EDF4"/>
<path d="M7.5 16C7.5 15.3787 8.00368 14.875 8.625 14.875H24.375C24.9963 14.875 25.5 15.3787 25.5 16C25.5 16.6213 24.9963 17.125 24.375 17.125H8.625C8.00368 17.125 7.5 16.6213 7.5 16Z" fill="#1A5D98"/>
<path d="M16.5 7C17.1213 7 17.625 7.50368 17.625 8.125L17.625 23.875C17.625 24.4963 17.1213 25 16.5 25C15.8787 25 15.375 24.4963 15.375 23.875L15.375 8.125C15.375 7.50368 15.8787 7 16.5 7Z" fill="#1A5D98"/>
</svg>
