<svg width="18" height="18" viewBox="0 0 18 18" fill="none" xmlns="http://www.w3.org/2000/svg">
<path d="M15.6666 0.666664H2.33329C1.41663 0.666664 0.666626 1.41666 0.666626 2.33333V17.3333L3.99996 14H15.6666C16.5833 14 17.3333 13.25 17.3333 12.3333V2.33333C17.3333 1.41666 16.5833 0.666664 15.6666 0.666664ZM8.99996 8.16666C8.54163 8.16666 8.16663 7.79166 8.16663 7.33333V4C8.16663 3.54166 8.54163 3.16666 8.99996 3.16666C9.45829 3.16666 9.83329 3.54166 9.83329 4V7.33333C9.83329 7.79166 9.45829 8.16666 8.99996 8.16666ZM9.83329 11.5H8.16663V9.83333H9.83329V11.5Z" fill="#1A5D98"/>
</svg>
