<svg width="16" height="18" viewBox="0 0 16 18" fill="none" xmlns="http://www.w3.org/2000/svg">
<path d="M13.8333 2.50001H10.35C10 1.53334 9.08333 0.833344 8 0.833344C6.91667 0.833344 6 1.53334 5.65 2.50001H2.16667C1.25 2.50001 0.5 3.25001 0.5 4.16668V15.8333C0.5 16.75 1.25 17.5 2.16667 17.5H13.8333C14.75 17.5 15.5 16.75 15.5 15.8333V4.16668C15.5 3.25001 14.75 2.50001 13.8333 2.50001ZM8 2.50001C8.45833 2.50001 8.83333 2.87501 8.83333 3.33334C8.83333 3.79168 8.45833 4.16668 8 4.16668C7.54167 4.16668 7.16667 3.79168 7.16667 3.33334C7.16667 2.87501 7.54167 2.50001 8 2.50001ZM5.74167 13.575L3.58333 11.4167C3.50618 11.3395 3.44498 11.2479 3.40323 11.1471C3.36147 11.0463 3.33998 10.9383 3.33998 10.8292C3.33998 10.7201 3.36147 10.612 3.40323 10.5112C3.44498 10.4104 3.50618 10.3188 3.58333 10.2417C3.66048 10.1645 3.75208 10.1033 3.85288 10.0616C3.95368 10.0198 4.06172 9.99833 4.17083 9.99833C4.27994 9.99833 4.38798 10.0198 4.48879 10.0616C4.58959 10.1033 4.68118 10.1645 4.75833 10.2417L6.33333 11.8083L11.2333 6.90834C11.3105 6.83119 11.4021 6.76999 11.5029 6.72824C11.6037 6.68648 11.7117 6.66499 11.8208 6.66499C11.9299 6.66499 12.038 6.68648 12.1388 6.72824C12.2396 6.76999 12.3312 6.83119 12.4083 6.90834C12.4855 6.9855 12.5467 7.07709 12.5884 7.17789C12.6302 7.27869 12.6517 7.38673 12.6517 7.49584C12.6517 7.60495 12.6302 7.71299 12.5884 7.8138C12.5467 7.9146 12.4855 8.00619 12.4083 8.08334L6.91667 13.575C6.83957 13.6523 6.748 13.7136 6.64719 13.7554C6.54638 13.7972 6.43831 13.8187 6.32917 13.8187C6.22003 13.8187 6.11196 13.7972 6.01115 13.7554C5.91034 13.7136 5.81876 13.6523 5.74167 13.575Z" fill="#1A5D98"/>
</svg>
