<svg width="20" height="20" viewBox="0 0 20 20" fill="none" xmlns="http://www.w3.org/2000/svg">
<path d="M15 6.66658H16.6667C16.8877 6.66658 17.0996 6.75438 17.2559 6.91066C17.4122 7.06694 17.5 7.2789 17.5 7.49992V17.4999C17.5 17.7209 17.4122 17.9329 17.2559 18.0892C17.0996 18.2455 16.8877 18.3333 16.6667 18.3333H3.33333C3.11232 18.3333 2.90036 18.2455 2.74408 18.0892C2.5878 17.9329 2.5 17.7209 2.5 17.4999V7.49992C2.5 7.2789 2.5878 7.06694 2.74408 6.91066C2.90036 6.75438 3.11232 6.66658 3.33333 6.66658H5V5.83325C5 4.50717 5.52678 3.2354 6.46447 2.29772C7.40215 1.36004 8.67392 0.833252 10 0.833252C11.3261 0.833252 12.5979 1.36004 13.5355 2.29772C14.4732 3.2354 15 4.50717 15 5.83325V6.66658ZM13.3333 6.66658V5.83325C13.3333 4.9492 12.9821 4.10135 12.357 3.47623C11.7319 2.85111 10.8841 2.49992 10 2.49992C9.11594 2.49992 8.2681 2.85111 7.64298 3.47623C7.01786 4.10135 6.66667 4.9492 6.66667 5.83325V6.66658H13.3333ZM9.16667 11.6666V13.3333H10.8333V11.6666H9.16667ZM5.83333 11.6666V13.3333H7.5V11.6666H5.83333ZM12.5 11.6666V13.3333H14.1667V11.6666H12.5Z" fill="#1A5D98"/>
</svg>
