<svg width="20" height="20" viewBox="0 0 20 20" fill="none" xmlns="http://www.w3.org/2000/svg">
<path d="M5 18.3334H15.8333C16.2754 18.3334 16.6993 18.1578 17.0118 17.8453C17.3244 17.5327 17.5 17.1088 17.5 16.6667V3.33341C17.5 2.89139 17.3244 2.46746 17.0118 2.1549C16.6993 1.84234 16.2754 1.66675 15.8333 1.66675H4.16667C3.72464 1.66675 3.30072 1.84234 2.98816 2.1549C2.67559 2.46746 2.5 2.89139 2.5 3.33341V16.6667C2.5 17.1088 2.67559 17.5327 2.98816 17.8453C3.30072 18.1578 3.72464 18.3334 4.16667 18.3334H5ZM10 4.16591C11.3725 4.16591 12.5 5.29175 12.5 6.66591C12.5 8.03925 11.3725 9.16675 10 9.16675C8.6275 9.16675 7.5 8.03925 7.5 6.66591C7.5 5.29175 8.6275 4.16591 10 4.16591ZM5 14.3751C5 12.5259 7.25417 10.6251 10 10.6251C12.7458 10.6251 15 12.5259 15 14.3751V15.0001H5V14.3751Z" fill="#1A5D98"/>
</svg>
