<svg width="17" height="17" viewBox="0 0 17 17" fill="none" xmlns="http://www.w3.org/2000/svg">
<path d="M7.15748 12.5278C8.34902 12.5275 9.50622 12.1286 10.4448 11.3946L13.3958 14.3456L14.3451 13.3964L11.394 10.4454C12.1284 9.50672 12.5276 8.34925 12.5279 7.1574C12.5279 4.19632 10.1186 1.78703 7.15748 1.78703C4.19639 1.78703 1.78711 4.19632 1.78711 7.1574C1.78711 10.1185 4.19639 12.5278 7.15748 12.5278ZM7.15748 3.12963C9.3788 3.12963 11.1853 4.93608 11.1853 7.1574C11.1853 9.37872 9.3788 11.1852 7.15748 11.1852C4.93616 11.1852 3.1297 9.37872 3.1297 7.1574C3.1297 4.93608 4.93616 3.12963 7.15748 3.12963Z" fill="white"/>
</svg>
