<svg width="21" height="20" viewBox="0 0 21 20" fill="none" xmlns="http://www.w3.org/2000/svg">
<g clip-path="url(#clip0_184_4226)">
<path d="M10.2174 18.3334C5.5434 18.3334 1.75464 14.6025 1.75464 10C1.75464 5.39755 5.5434 1.66671 10.2174 1.66671C14.8913 1.66671 18.6801 5.39755 18.6801 10C18.6801 14.6025 14.8913 18.3334 10.2174 18.3334ZM10.2174 16.6667C12.0129 16.6667 13.735 15.9643 15.0046 14.7141C16.2743 13.4639 16.9876 11.7682 16.9876 10C16.9876 8.23194 16.2743 6.53624 15.0046 5.286C13.735 4.03576 12.0129 3.33338 10.2174 3.33338C8.42181 3.33338 6.69978 4.03576 5.43013 5.286C4.16047 6.53624 3.44719 8.23194 3.44719 10C3.44719 11.7682 4.16047 13.4639 5.43013 14.7141C6.69978 15.9643 8.42181 16.6667 10.2174 16.6667ZM9.3711 12.5H11.0636V14.1667H9.3711V12.5ZM9.3711 5.83338H11.0636V10.8334H9.3711V5.83338Z" fill="#EB5757" fill-opacity="0.8"/>
</g>
<defs>
<clipPath id="clip0_184_4226">
<rect width="20.3106" height="20" fill="white" transform="translate(0.0620117)"/>
</clipPath>
</defs>
</svg>
